PathFileType	4	(X/Y/Z)	c:/Users/goper/Files/vsCode/490R/osim_files/C15/C15_Fast_01.trc
DataRate	CameraRate	NumFrames	NumMarkers	Units                	OrigDataRate	OrigDataStartFrame	OrigNumFrames
250.00	250.00	4	36	mm	250.0	1194	2387
                Frame#	Time	LPSIS			LASIS			LTH1			LTH2			LTH3			LTH4			LLFE			LMFE			LSH1			LSH2			LSH3			LSH4			LLMAL			LMMAL			LCAL			LMTP5			LTOE			LMTP1			RPSIS			RASIS			RTH1			RTH2			RTH3			RTH4			RLFE			RMFE			RSH1			RSH2			RSH3			RSH4			RLMAL			RMMAL			RCAL			RMTP1			RTOE			RMTP5		
		X1	Y1	Z1	X2	Y2	Z2	X3	Y3	Z3	X4	Y4	Z4	X5	Y5	Z5	X6	Y6	Z6	X7	Y7	Z7	X8	Y8	Z8	X9	Y9	Z9	X10	Y10	Z10	X11	Y11	Z11	X12	Y12	Z12	X13	Y13	Z13	X14	Y14	Z14	X15	Y15	Z15	X16	Y16	Z16	X17	Y17	Z17	X18	Y18	Z18	X19	Y19	Z19	X20	Y20	Z20	X21	Y21	Z21	X22	Y22	Z22	X23	Y23	Z23	X24	Y24	Z24	X25	Y25	Z25	X26	Y26	Z26	X27	Y27	Z27	X28	Y28	Z28	X29	Y29	Z29	X30	Y30	Z30	X31	Y31	Z31	X32	Y32	Z32	X33	Y33	Z33	X34	Y34	Z34	X35	Y35	Z35	X36	Y36	Z36

1194	4.77200	1165.34998	1027.01367	259.58853	997.81207	999.09546	322.46234	1087.44971	603.13068	364.31256	1087.79846	557.74341	346.80121	1037.73718	612.76086	359.16309	1038.90552	568.41919	348.10474	1080.57532	486.70944	325.64191	1081.53906	476.55786	207.85390	1155.46912	385.38654	337.13742	1159.19495	339.71774	339.27429	1093.44189	372.23941	332.71738	1106.28577	329.10107	335.52832	1175.59106	79.21401	260.97614	1161.47449	110.25471	175.07443	1243.30249	60.21281	220.82234	1057.69958	34.27787	274.13425	1005.24829	53.93669	207.53973	1050.03613	29.05972	153.50752	1165.07654	1026.74426	138.78148	1010.13068	1002.75366	73.10200	953.49432	649.60437	-0.48648	934.62286	606.73358	8.42188	897.09094	668.99261	11.38061	885.14386	622.72003	14.64267	899.11902	523.82593	33.59124	904.25281	502.77490	152.89726	1012.14697	469.74066	26.63294	1034.11865	432.35440	22.65026	961.85382	432.76685	14.76464	992.05945	401.86877	12.07784	1152.36292	192.63147	65.93786	1101.64539	186.98581	146.25642	1209.00708	199.48431	123.55830	1049.80017	70.30301	127.16302	1016.18317	76.23372	69.49612	1092.82825	84.91380	17.41058
1195	4.77600	1161.28601	1026.58801	259.37164	994.13373	998.91931	322.27338	1085.34375	603.04492	364.23767	1085.85718	557.65234	346.77844	1035.80859	612.80542	359.03351	1036.98853	568.27295	348.12100	1079.08582	486.72574	325.65500	1079.87158	476.41037	207.86372	1154.36316	385.55460	337.07800	1158.76562	340.27258	339.07846	1092.34180	372.12405	332.71030	1105.62305	328.95038	335.64505	1177.10645	80.76078	261.33511	1161.33667	110.41230	175.02306	1243.23804	60.35319	220.74139	1057.71277	34.27557	274.10092	1005.08966	53.82479	207.53394	1049.97144	28.97882	153.70351	1161.15515	1026.54382	138.46622	1005.47986	1003.15240	72.42557	947.78412	650.04572	-0.18828	931.23157	608.36334	5.62738	891.75916	669.95947	11.79020	879.42340	623.48505	15.14404	892.81555	524.41632	34.21496	898.14209	503.60202	153.31642	1004.84338	467.83667	26.33503	1026.13965	430.22104	22.38856	953.90509	432.15927	14.93390	983.57751	400.54541	12.06865	1139.54578	187.96103	65.39615	1088.28296	182.77209	144.96927	1197.07520	193.58565	122.75166	1034.26709	68.40790	127.01707	1000.41846	74.31973	70.14854	1077.25916	81.98473	17.09985
1196	4.78000	1158.07520	1026.65967	258.97467	990.49664	998.74731	322.09103	1083.19287	602.98199	364.22607	1083.93921	557.62115	346.76865	1033.52698	612.32245	359.04956	1034.99036	568.02502	348.09808	1077.45117	486.45596	325.71210	1078.16235	476.24323	207.94710	1153.32397	385.68451	336.98669	1157.35535	340.05261	339.14691	1091.43555	371.98367	332.76837	1104.38049	328.55710	335.63507	1177.29968	81.11507	261.51343	1161.11768	110.62663	174.93924	1243.15198	60.46333	220.68758	1057.72021	34.21308	274.15503	1005.12939	53.87460	207.51892	1049.90332	28.89795	153.90627	1157.07422	1026.28760	138.15677	1001.33154	1002.21600	74.16802	942.19598	650.37097	0.11049	925.44885	608.83905	6.00993	886.32495	670.68726	12.27460	873.90546	624.50470	15.57872	886.67413	525.15338	34.76878	891.84149	504.10629	153.60654	998.03955	466.28787	25.87614	1018.43439	428.19684	21.97125	945.97791	431.36292	15.20376	975.08759	399.03909	12.06927	1126.62671	183.27031	64.92094	1075.41309	179.16388	144.46324	1184.24353	187.20721	121.76446	1018.22766	65.38062	126.59956	985.23132	73.21828	70.23668	1061.37061	78.93466	16.75207
1197	4.78400	1153.91833	1026.17322	258.73846	987.09802	998.48926	322.37033	1081.02295	602.93762	364.20871	1081.93298	557.56464	346.77313	1031.30432	612.03040	359.00180	1032.91150	567.65027	348.02945	1076.02783	486.23462	325.81720	1076.46313	476.07935	208.01134	1152.23059	385.83228	336.94302	1156.61414	340.24985	339.04431	1090.17969	371.71844	332.74692	1103.28650	328.21228	335.63126	1177.08984	81.23483	261.41376	1160.90283	110.79755	174.87915	1243.06567	60.56198	220.64229	1057.69751	34.23600	274.13153	1005.08466	53.87392	207.51888	1049.83215	28.81808	154.11446	1153.10461	1026.00403	137.85193	997.39093	1002.31396	73.51026	936.74780	650.71228	0.44231	919.76025	609.25000	6.43711	881.00452	671.40552	12.70377	868.06775	624.95813	16.06407	880.67792	525.68439	35.39486	886.04395	504.75104	154.20761	990.70197	464.20792	25.81434	1010.28571	425.67365	21.79188	938.08093	430.57990	15.51898	966.36829	397.45496	12.25657	1113.48694	178.51445	64.44718	1063.57825	176.65874	145.40910	1171.62952	181.06985	120.98842	1003.04865	64.92162	127.12468	969.31750	72.71239	70.18008	1045.25208	75.97015	16.90850
